<svg width="210" height="210" viewBox="0 0 210 210" fill="none" xmlns="http://www.w3.org/2000/svg">
<circle cx="105" cy="105" r="105" fill="#EFFBF9"/>
<path d="M49.58 139.148H52.4L55.68 148.508C55.8667 149.041 56.0733 149.728 56.3 150.568H56.38C56.62 149.635 56.82 148.948 56.98 148.508L60.28 139.148H63.08V152.868H61.18V143.808L61.22 141.248H61.08C60.9733 141.795 60.86 142.235 60.74 142.568L57.02 152.868H55.44L51.78 142.568C51.6733 142.288 51.56 141.848 51.44 141.248H51.32L51.36 143.808V152.868H49.58V139.148ZM67.0002 156.508C66.4135 156.508 65.9468 156.455 65.6002 156.348V155.208H66.3002C67.6602 155.208 68.5535 154.428 68.9802 152.868L64.9202 142.348H66.7802L68.7402 147.608C69.0202 148.355 69.4002 149.455 69.8802 150.908H69.9802C70.3668 149.548 70.6935 148.448 70.9602 147.608L72.6402 142.348H74.4002L70.9402 152.328C70.4735 153.661 69.9402 154.688 69.3402 155.408C68.7535 156.141 67.9735 156.508 67.0002 156.508ZM85.5666 153.108C83.9666 153.108 82.7932 152.668 82.0466 151.788C81.2999 150.895 80.9266 149.501 80.9266 147.608C80.9266 145.728 81.2999 144.341 82.0466 143.448C82.8066 142.555 83.9799 142.108 85.5666 142.108C87.0066 142.108 88.0599 142.455 88.7266 143.148C89.3932 143.841 89.7266 144.875 89.7266 146.248H87.9266C87.9266 145.301 87.7532 144.621 87.4066 144.208C87.0732 143.781 86.4599 143.568 85.5666 143.568C84.5932 143.568 83.8799 143.888 83.4266 144.528C82.9732 145.155 82.7466 146.181 82.7466 147.608V147.688C82.7466 149.101 82.9666 150.115 83.4066 150.728C83.8466 151.341 84.5666 151.648 85.5666 151.648C86.4466 151.648 87.0732 151.428 87.4466 150.988C87.8332 150.535 88.0266 149.861 88.0266 148.968H89.7266C89.7266 150.168 89.3866 151.161 88.7066 151.948C88.0266 152.721 86.9799 153.108 85.5666 153.108ZM95.7866 153.108C94.1732 153.108 92.9599 152.661 92.1466 151.768C91.3332 150.861 90.9266 149.475 90.9266 147.608C90.9266 145.741 91.3332 144.361 92.1466 143.468C92.9599 142.561 94.1732 142.108 95.7866 142.108C97.3999 142.108 98.6132 142.561 99.4266 143.468C100.24 144.361 100.647 145.741 100.647 147.608C100.647 149.475 100.24 150.861 99.4266 151.768C98.6132 152.661 97.3999 153.108 95.7866 153.108ZM95.7866 151.648C96.8532 151.648 97.6266 151.341 98.1066 150.728C98.5866 150.101 98.8266 149.088 98.8266 147.688V147.528C98.8266 146.128 98.5866 145.121 98.1066 144.508C97.6266 143.881 96.8532 143.568 95.7866 143.568C94.7199 143.568 93.9466 143.881 93.4666 144.508C92.9866 145.121 92.7466 146.128 92.7466 147.528V147.688C92.7466 149.088 92.9866 150.101 93.4666 150.728C93.9466 151.341 94.7199 151.648 95.7866 151.648ZM102.68 142.348H104.02L104.22 143.768H104.36C105.08 142.661 106.133 142.108 107.52 142.108C108.88 142.108 109.787 142.661 110.24 143.768H110.36C110.72 143.235 111.187 142.828 111.76 142.548C112.347 142.255 112.967 142.108 113.62 142.108C115.687 142.108 116.72 143.168 116.72 145.288V152.868H114.96V145.608C114.96 144.848 114.793 144.321 114.46 144.028C114.127 143.721 113.667 143.568 113.08 143.568C112.373 143.568 111.78 143.848 111.3 144.408C110.82 144.968 110.58 145.715 110.58 146.648V152.868H108.82V145.608C108.82 144.848 108.66 144.321 108.34 144.028C108.02 143.721 107.567 143.568 106.98 143.568C106.527 143.568 106.107 143.695 105.72 143.948C105.333 144.188 105.02 144.541 104.78 145.008C104.553 145.475 104.44 146.021 104.44 146.648V152.868H102.68V142.348ZM119.34 142.348H120.66L120.88 143.768H121C121.347 143.221 121.8 142.808 122.36 142.528C122.933 142.248 123.567 142.108 124.26 142.108C125.593 142.108 126.62 142.555 127.34 143.448C128.06 144.341 128.42 145.728 128.42 147.608C128.42 149.448 128.06 150.828 127.34 151.748C126.633 152.655 125.66 153.108 124.42 153.108C123.673 153.108 123.04 152.995 122.52 152.768C122 152.541 121.567 152.175 121.22 151.668H121.1V156.328H119.34V142.348ZM123.82 151.648C124.5 151.648 125.04 151.521 125.44 151.268C125.84 151.015 126.133 150.601 126.32 150.028C126.507 149.455 126.6 148.675 126.6 147.688V147.608C126.6 146.608 126.507 145.815 126.32 145.228C126.133 144.641 125.833 144.221 125.42 143.968C125.02 143.701 124.487 143.568 123.82 143.568C122.887 143.568 122.2 143.908 121.76 144.588C121.32 145.268 121.1 146.275 121.1 147.608V147.688C121.1 148.995 121.313 149.981 121.74 150.648C122.18 151.315 122.873 151.648 123.82 151.648ZM133.673 153.108C132.62 153.108 131.807 152.828 131.233 152.268C130.673 151.695 130.393 150.781 130.393 149.528V142.348H132.153V149.408C132.153 150.248 132.34 150.835 132.713 151.168C133.087 151.488 133.627 151.648 134.333 151.648C134.84 151.648 135.307 151.528 135.733 151.288C136.16 151.035 136.5 150.675 136.753 150.208C137.007 149.741 137.133 149.195 137.133 148.568V142.348H138.893V152.868H137.553L137.353 151.448H137.213C136.44 152.555 135.26 153.108 133.673 153.108ZM143.947 153.088C143.227 153.088 142.7 152.875 142.367 152.448C142.033 152.021 141.867 151.495 141.867 150.868V143.808H140.587V142.348H141.887L142.267 139.428H143.627V142.348H145.407V143.808H143.627V150.708C143.627 151.335 143.92 151.648 144.507 151.648H145.407V152.808C145.233 152.888 145.007 152.955 144.727 153.008C144.447 153.061 144.187 153.088 143.947 153.088ZM151.593 153.108C149.9 153.108 148.64 152.661 147.813 151.768C146.986 150.875 146.573 149.488 146.573 147.608C146.573 145.728 146.986 144.341 147.813 143.448C148.64 142.555 149.9 142.108 151.593 142.108C153.113 142.108 154.246 142.515 154.993 143.328C155.753 144.128 156.133 145.421 156.133 147.208V148.088H148.393C148.46 149.301 148.746 150.201 149.253 150.788C149.773 151.361 150.553 151.648 151.593 151.648C152.433 151.648 153.113 151.455 153.633 151.068C154.153 150.681 154.413 150.088 154.413 149.288H156.133C156.133 150.515 155.706 151.461 154.853 152.128C154.013 152.781 152.926 153.108 151.593 153.108ZM154.293 146.628C154.293 144.588 153.393 143.568 151.593 143.568C150.593 143.568 149.84 143.808 149.333 144.288C148.84 144.768 148.54 145.548 148.433 146.628H154.293ZM158.246 142.348H159.586L159.786 143.928H159.906C160.106 143.408 160.406 142.975 160.806 142.628C161.206 142.281 161.733 142.108 162.386 142.108C162.746 142.108 163.06 142.161 163.326 142.268V143.968H162.586C161.84 143.968 161.22 144.188 160.726 144.628C160.246 145.055 160.006 145.728 160.006 146.648V152.868H158.246V142.348Z" fill="#BBBBBB"/>
<path d="M135.495 65.2249H124.019L121.285 57.3178C121.096 56.7768 120.75 56.3091 120.294 55.9787C119.838 55.6482 119.294 55.4712 118.737 55.4717H92.8485C91.7094 55.4717 90.6884 56.2119 90.3087 57.3178L87.5663 65.2249H76.0904C72.3607 65.2249 69.3398 68.3425 69.3398 72.1916V111.901C69.3398 115.75 72.3607 118.868 76.0904 118.868H135.495C139.225 118.868 142.246 115.75 142.246 111.901V72.1916C142.246 68.3425 139.225 65.2249 135.495 65.2249ZM136.17 111.901C136.17 112.284 135.866 112.598 135.495 112.598H76.0904C75.7191 112.598 75.4153 112.284 75.4153 111.901V72.1916C75.4153 71.8084 75.7191 71.4949 76.0904 71.4949H91.8444L93.2873 67.3323L95.2197 61.7416H116.357L118.29 67.3323L119.733 71.4949H135.495C135.866 71.4949 136.17 71.8084 136.17 72.1916V111.901ZM105.793 77.0682C98.3333 77.0682 92.2916 83.3033 92.2916 91.0014C92.2916 98.6995 98.3333 104.935 105.793 104.935C113.252 104.935 119.294 98.6995 119.294 91.0014C119.294 83.3033 113.252 77.0682 105.793 77.0682ZM105.793 99.3614C101.32 99.3614 97.692 95.6168 97.692 91.0014C97.692 86.386 101.32 82.6415 105.793 82.6415C110.265 82.6415 113.893 86.386 113.893 91.0014C113.893 95.6168 110.265 99.3614 105.793 99.3614Z" fill="#BBBBBB"/>
</svg>
