<svg width="28" height="28" viewBox="0 0 28 28" fill="none" xmlns="http://www.w3.org/2000/svg">
<path d="M1.72222 26.2778L9.66667 16.8889L14 21.2222L19.7778 14L27 22.6667M1 1H27V27H1V1ZM8.22222 11.1111C8.60531 11.1111 8.97271 10.9589 9.2436 10.688C9.51448 10.4172 9.66667 10.0498 9.66667 9.66667C9.66667 9.28358 9.51448 8.91618 9.2436 8.64529C8.97271 8.3744 8.60531 8.22222 8.22222 8.22222C7.83913 8.22222 7.47173 8.3744 7.20085 8.64529C6.92996 8.91618 6.77778 9.28358 6.77778 9.66667C6.77778 10.0498 6.92996 10.4172 7.20085 10.688C7.47173 10.9589 7.83913 11.1111 8.22222 11.1111Z" stroke="#9B9494" stroke-width="2"/>
</svg>
